<svg width="27" height="27" viewBox="0 0 27 27" fill="none" xmlns="http://www.w3.org/2000/svg">
<path d="M20.3801 6.76006C19.1681 5.96982 18.2933 4.70545 18.0204 3.23152C17.9615 2.91307 17.9291 2.58533 17.9291 2.25H14.0609L14.0547 17.7525C13.9897 19.4885 12.5609 20.8818 10.8093 20.8818C10.2649 20.8818 9.75228 20.7457 9.30095 20.5082C8.26596 19.9635 7.55767 18.8787 7.55767 17.6302C7.55767 15.8372 9.01641 14.3784 10.8093 14.3784C11.144 14.3784 11.465 14.4337 11.7687 14.5288V10.5798C11.4544 10.537 11.1351 10.5102 10.8093 10.5102C6.88333 10.5102 3.68945 13.7043 3.68945 17.6302C3.68945 20.039 4.89293 22.1706 6.72896 23.4596C7.88544 24.2715 9.29216 24.75 10.8093 24.75C14.7352 24.75 17.9291 21.5562 17.9291 17.6302V9.76913C19.4463 10.8581 21.305 11.4998 23.3108 11.4998V7.63154C22.2303 7.63154 21.224 7.31034 20.3801 6.76006" fill="white" fill-opacity="0.8"/>
</svg>
