<svg width="32" height="32" viewBox="0 0 32 32" fill="none" xmlns="http://www.w3.org/2000/svg">
<path d="M16.0503 4.38708C9.46348 4.38708 4.10297 9.55018 4.10065 15.8955C4.0991 17.9246 4.65032 19.905 5.69548 21.6493L4 27.6129L10.3352 26.0126C12.0975 26.9345 14.0569 27.4153 16.0457 27.4139H16.0503C22.6372 27.4139 27.9977 22.2501 28 15.9048C28.0015 12.8312 26.7597 9.93805 24.503 7.76334C22.247 5.58786 19.247 4.38786 16.0503 4.38708ZM16.0503 25.4699H16.0465C14.2643 25.4699 12.5161 25.0085 10.991 24.1368L10.6271 23.9293L6.86916 24.8784L7.87252 21.3481L7.63639 20.9866C6.64457 19.4739 6.11659 17.7043 6.11742 15.8955C6.11974 10.6209 10.576 6.33108 16.0542 6.33108C18.7066 6.33186 21.2003 7.32825 23.0761 9.13599C24.952 10.9437 25.984 13.3476 25.9825 15.904C25.9801 21.1786 21.5246 25.4699 16.0495 25.4699H16.0503ZM21.4983 18.3048C21.1995 18.1615 19.7316 17.4655 19.4575 17.3688C19.1843 17.2735 18.9853 17.224 18.7863 17.512C18.5881 17.8 18.0152 18.448 17.8418 18.6392C17.6668 18.8312 17.4926 18.8544 17.1938 18.7112C16.895 18.5672 15.9326 18.2637 14.793 17.2836C13.905 16.5218 13.3058 15.5804 13.1316 15.2916C12.9574 15.0044 13.113 14.8488 13.2625 14.7055C13.3964 14.5778 13.5613 14.3703 13.7099 14.2023C13.8586 14.0343 13.9081 13.9143 14.0088 13.7223C14.1079 13.5311 14.0583 13.3623 13.9832 13.2191C13.9081 13.0743 13.312 11.6591 13.0619 11.0839C12.8204 10.5233 12.5742 10.5984 12.3907 10.5891C12.2165 10.5814 12.0183 10.5791 11.8178 10.5791C11.6204 10.5791 11.296 10.6511 11.0219 10.9391C10.7486 11.2271 9.97677 11.9223 9.97677 13.3375C9.97677 14.7535 11.0467 16.1208 11.1961 16.3128C11.3455 16.504 13.3019 19.4095 16.2973 20.656C17.0095 20.951 17.5654 21.1282 17.9997 21.2614C18.7151 21.4805 19.3662 21.4488 19.8803 21.3752C20.4532 21.2924 21.647 20.68 21.8947 20.0088C22.144 19.3375 22.144 18.7615 22.0697 18.6415C21.9969 18.5215 21.7972 18.4495 21.4983 18.3048Z" fill="white" fill-opacity="0.8"/>
</svg>
